<mxfile host="app.diagrams.net" modified="2023-01-06T09:03:52.283Z" agent="5.0 (Windows NT 10.0; Win64; x64) AppleWebKit/537.36 (KHTML, like Gecko) Chrome/108.0.0.0 Safari/537.36 Edg/108.0.1462.54" etag="DLdshna7C5zQnVFFR84w" version="20.8.1" type="github">
  <diagram id="h5aOr7q_46L2LxU_2VeW" name="Page-1">
    <mxGraphModel dx="2214" dy="1933" grid="1" gridSize="10" guides="1" tooltips="1" connect="1" arrows="1" fold="1" page="1" pageScale="1" pageWidth="827" pageHeight="1169" math="0" shadow="0">
      <root>
        <mxCell id="0" />
        <mxCell id="1" parent="0" />
        <mxCell id="RzGppMRzX_fy2ogsKQQs-8" style="edgeStyle=orthogonalEdgeStyle;rounded=0;orthogonalLoop=1;jettySize=auto;html=1;exitX=0.5;exitY=1;exitDx=0;exitDy=0;" parent="1" source="RzGppMRzX_fy2ogsKQQs-1" target="RzGppMRzX_fy2ogsKQQs-3" edge="1">
          <mxGeometry relative="1" as="geometry" />
        </mxCell>
        <mxCell id="RzGppMRzX_fy2ogsKQQs-1" value="adc_soc" style="rounded=0;whiteSpace=wrap;html=1;" parent="1" vertex="1">
          <mxGeometry x="210" y="140" width="120" height="60" as="geometry" />
        </mxCell>
        <mxCell id="RzGppMRzX_fy2ogsKQQs-12" style="edgeStyle=orthogonalEdgeStyle;rounded=0;orthogonalLoop=1;jettySize=auto;html=1;exitX=0.5;exitY=1;exitDx=0;exitDy=0;startArrow=classic;startFill=1;endArrow=none;endFill=0;" parent="1" source="RzGppMRzX_fy2ogsKQQs-2" target="RzGppMRzX_fy2ogsKQQs-4" edge="1">
          <mxGeometry relative="1" as="geometry" />
        </mxCell>
        <mxCell id="RzGppMRzX_fy2ogsKQQs-2" value="rdc_soc" style="rounded=0;whiteSpace=wrap;html=1;" parent="1" vertex="1">
          <mxGeometry x="650" y="140" width="120" height="60" as="geometry" />
        </mxCell>
        <mxCell id="RzGppMRzX_fy2ogsKQQs-7" style="edgeStyle=orthogonalEdgeStyle;rounded=0;orthogonalLoop=1;jettySize=auto;html=1;exitX=0.25;exitY=0;exitDx=0;exitDy=0;entryX=0.25;entryY=1;entryDx=0;entryDy=0;" parent="1" source="RzGppMRzX_fy2ogsKQQs-3" target="RzGppMRzX_fy2ogsKQQs-1" edge="1">
          <mxGeometry relative="1" as="geometry" />
        </mxCell>
        <mxCell id="RzGppMRzX_fy2ogsKQQs-3" value="adc_mcu" style="rounded=0;whiteSpace=wrap;html=1;" parent="1" vertex="1">
          <mxGeometry x="210" y="360" width="120" height="60" as="geometry" />
        </mxCell>
        <mxCell id="RzGppMRzX_fy2ogsKQQs-9" style="edgeStyle=orthogonalEdgeStyle;rounded=0;orthogonalLoop=1;jettySize=auto;html=1;exitX=0.25;exitY=0;exitDx=0;exitDy=0;startArrow=classic;startFill=1;endArrow=none;endFill=0;" parent="1" source="RzGppMRzX_fy2ogsKQQs-4" edge="1">
          <mxGeometry relative="1" as="geometry">
            <mxPoint x="270" y="230" as="targetPoint" />
          </mxGeometry>
        </mxCell>
        <mxCell id="RzGppMRzX_fy2ogsKQQs-13" style="edgeStyle=orthogonalEdgeStyle;rounded=0;orthogonalLoop=1;jettySize=auto;html=1;exitX=0.75;exitY=0;exitDx=0;exitDy=0;entryX=0.75;entryY=1;entryDx=0;entryDy=0;startArrow=classic;startFill=1;endArrow=none;endFill=0;" parent="1" source="RzGppMRzX_fy2ogsKQQs-4" target="RzGppMRzX_fy2ogsKQQs-2" edge="1">
          <mxGeometry relative="1" as="geometry" />
        </mxCell>
        <mxCell id="RzGppMRzX_fy2ogsKQQs-4" value="rdc_mcu" style="rounded=0;whiteSpace=wrap;html=1;" parent="1" vertex="1">
          <mxGeometry x="650" y="360" width="120" height="60" as="geometry" />
        </mxCell>
        <mxCell id="RzGppMRzX_fy2ogsKQQs-15" value="ADCSOC_ADCMCU_HEARTBEAT" style="text;html=1;align=center;verticalAlign=middle;resizable=0;points=[];autosize=1;strokeColor=#6c8ebf;fillColor=#dae8fc;" parent="1" vertex="1">
          <mxGeometry x="270" y="320" width="210" height="30" as="geometry" />
        </mxCell>
        <mxCell id="RzGppMRzX_fy2ogsKQQs-16" value="ADCMCU_ADCSOC_HEARTBEAT" style="text;html=1;align=center;verticalAlign=middle;resizable=0;points=[];autosize=1;strokeColor=#6c8ebf;fillColor=#dae8fc;" parent="1" vertex="1">
          <mxGeometry x="-70" y="250" width="210" height="30" as="geometry" />
        </mxCell>
        <mxCell id="RzGppMRzX_fy2ogsKQQs-17" value="RDCMCU_RDCSOC_HEARTBEAT" style="text;html=1;align=center;verticalAlign=middle;resizable=0;points=[];autosize=1;strokeColor=#b85450;fillColor=#f8cecc;" parent="1" vertex="1">
          <mxGeometry x="500" y="220" width="210" height="30" as="geometry" />
        </mxCell>
        <mxCell id="RzGppMRzX_fy2ogsKQQs-18" value="RDCSOC_RDCMCU_HEARTBEAT" style="text;html=1;align=center;verticalAlign=middle;resizable=0;points=[];autosize=1;strokeColor=#b85450;fillColor=#f8cecc;" parent="1" vertex="1">
          <mxGeometry x="750" y="250" width="210" height="30" as="geometry" />
        </mxCell>
        <mxCell id="RzGppMRzX_fy2ogsKQQs-19" value="RT6_ADCMCU_socket0_HEARTBEAT_V1.0_20230105.dbc" style="whiteSpace=wrap;html=1;fillColor=#dae8fc;strokeColor=#6c8ebf;" parent="1" vertex="1">
          <mxGeometry x="40" y="-20" width="360" height="20" as="geometry" />
        </mxCell>
        <mxCell id="RzGppMRzX_fy2ogsKQQs-20" value="RT6_RDCMCU_socket1_HEARTBEAT_V1.0_20230105.dbc" style="whiteSpace=wrap;html=1;fillColor=#ffe6cc;strokeColor=#d79b00;" parent="1" vertex="1">
          <mxGeometry x="40" y="60" width="360" height="20" as="geometry" />
        </mxCell>
        <mxCell id="RzGppMRzX_fy2ogsKQQs-21" value="RT6_RDCMCU_socket0_HEARTBEAT_V1.0_20230105.dbc" style="whiteSpace=wrap;html=1;fillColor=#f8cecc;strokeColor=#b85450;" parent="1" vertex="1">
          <mxGeometry x="40" y="20" width="360" height="20" as="geometry" />
        </mxCell>
        <mxCell id="RzGppMRzX_fy2ogsKQQs-23" value="ADCSOC_RDCMCU_HEARTBEAT" style="text;html=1;align=center;verticalAlign=middle;resizable=0;points=[];autosize=1;strokeColor=#d79b00;fillColor=#ffe6cc;" parent="1" vertex="1">
          <mxGeometry x="340" y="260" width="210" height="30" as="geometry" />
        </mxCell>
      </root>
    </mxGraphModel>
  </diagram>
</mxfile>
